<svg version="1.1"
	 id="svg2" xmlns:svg="http://www.w3.org/2000/svg" xmlns:sodipodi="http://sodipodi.sourceforge.net/DTD/sodipodi-0.dtd" xmlns:dc="http://purl.org/dc/elements/1.1/" xmlns:inkscape="http://www.inkscape.org/namespaces/inkscape" xmlns:rdf="http://www.w3.org/1999/02/22-rdf-syntax-ns#" xmlns:cc="http://creativecommons.org/ns#"
	 xmlns="http://www.w3.org/2000/svg" xmlns:xlink="http://www.w3.org/1999/xlink" x="0px" y="0px" viewBox="76 75 649 144"
	 style="enable-background:new 0 0 800.4 313.9;" xml:space="preserve">
<style type="text/css">
	.st0{fill:url(#SVGID_1_);}
	.st1{fill:#F25C19;}
	.st2{fill:url(#SVGID_00000066514824803427027120000007160962044467655614_);enable-background:new    ;}
	.st3{fill:#CCCFD5;}
	.st4{fill:url(#SVGID_00000032616197273419702050000011205057988836963222_);}
	.st5{fill:url(#SVGID_00000129197047544145677780000005327014566097746077_);}
	.st6{fill:url(#SVGID_00000018931505793962462530000016179009278269332114_);}
</style>
<sodipodi:namedview  bordercolor="#666666" borderopacity="1" gridtolerance="10" guidetolerance="10" id="namedview4" inkscape:pageopacity="0" inkscape:pageshadow="2" inkscape:window-height="480" inkscape:window-width="640" objecttolerance="10" pagecolor="#ffffff">
	</sodipodi:namedview>
<g id="g10_00000098919438987097918920000008603204562641469834_" transform="matrix(1.3333333,0,0,-1.3333333,0,312.08)" inkscape:groupmode="layer" inkscape:label="ink_ext_XXXXXX">
	<g id="g12_00000140731093196045336630000000906100550884717194_" transform="scale(0.1)">
		<linearGradient id="SVGID_1_" gradientUnits="userSpaceOnUse" x1="4494.0654" y1="570.7134" x2="4495.4204" y2="573.0604">
			<stop  offset="0" style="stop-color:#FFFFFF"/>
			<stop  offset="6.771755e-02" style="stop-color:#FCDFD1"/>
			<stop  offset="0.1428" style="stop-color:#FAC1A6"/>
			<stop  offset="0.2239" style="stop-color:#F8A680"/>
			<stop  offset="0.3101" style="stop-color:#F68F60"/>
			<stop  offset="0.4028" style="stop-color:#F57D46"/>
			<stop  offset="0.5046" style="stop-color:#F36F32"/>
			<stop  offset="0.6201" style="stop-color:#F36524"/>
			<stop  offset="0.7611" style="stop-color:#F25F1B"/>
			<stop  offset="1" style="stop-color:#F25D19"/>
		</linearGradient>
		<path class="st0" d="M4490.4,566.9c4.4,5.9,8.8,11.9,13.4,17.9C4499.2,578.8,4494.8,572.8,4490.4,566.9L4490.4,566.9z"/>
		<path id="path24_00000099624977305849980150000002859692813779651713_" class="st1" d="M754.3,894.9l-41.1-87.3h82.1L754.3,894.9z
			 M757.6,946.1l112.3-241.4h-26.6L806.3,784H702l-37.4-79.2h-26.6l113.8,241.4H757.6"/>
		<path id="path26_00000021823719426611578520000010254387021537297571_" class="st1" d="M1616.2,946.1l28.4-0.2l57.3-93.4
			l57.5,93.4l28.4,0.2l-71.8-116.7l76.5-124.7h-28.2l-62.5,101.8l-62.6-101.8H1611l76.8,124.8L1616.2,946.1"/>
		<path id="path28_00000176721590759907530060000006011576216485228978_" class="st1" d="M2612.3,946.1h24.1V704.7h-24.1V946.1"/>
		<path id="path30_00000158003707038927208950000007505499506736135353_" class="st1" d="M3366.4,750.2l20.5,12.2
			c14.5-26.5,31.2-39.9,50.2-39.9c8.1,0,15.7,1.9,22.9,5.7c7,3.8,12.5,8.7,16.2,15c3.7,6.3,5.7,13,5.7,20.1c0,7.9-2.8,15.9-8.3,23.5
			c-7.6,10.8-21.3,23.7-41.4,38.8c-20.3,15.2-32.8,26.2-37.7,32.9c-8.5,11.3-12.8,23.7-12.8,36.9c0,10.6,2.5,20.1,7.6,28.7
			c5.1,8.6,12.2,15.4,21.3,20.4c9.1,4.9,19,7.4,29.9,7.4c11.3,0,22-2.8,32-8.5c9.9-5.6,20.4-16,31.4-31.1l-19.7-15
			c-9,12-16.8,19.9-23.3,23.7c-6.3,3.8-13.3,5.8-20.9,5.8c-9.8,0-17.7-3-24-8.8c-6.2-5.9-9.2-13.2-9.2-21.7c0-5.3,1.1-10.3,3.3-15.2
			c2.2-4.9,6.2-10.3,12-16c3.2-3.1,13.6-11.1,31.3-24c20.9-15.5,35.3-29.1,43.1-41.2c7.8-12,11.6-24.1,11.6-36.1
			c0-17.5-6.5-32.6-19.9-45.5c-13.3-12.9-29.5-19.2-48.7-19.2c-14.7,0-28,3.9-40,11.7C3387.5,718.6,3376.5,731.7,3366.4,750.2"/>
		
			<linearGradient id="SVGID_00000077320567278132877600000011138092861739443857_" gradientUnits="userSpaceOnUse" x1="4304.4473" y1="566.9689" x2="4304.4473" y2="634.9818">
			<stop  offset="0" style="stop-color:#FFFFFF;stop-opacity:0"/>
			<stop  offset="3.211951e-02" style="stop-color:#FEF7F4;stop-opacity:3.211951e-02"/>
			<stop  offset="0.2358" style="stop-color:#FBC9B2;stop-opacity:0.2358"/>
			<stop  offset="0.4296" style="stop-color:#F8A27C;stop-opacity:0.4296"/>
			<stop  offset="0.6081" style="stop-color:#F58451;stop-opacity:0.6081"/>
			<stop  offset="0.7683" style="stop-color:#F36F32;stop-opacity:0.7683"/>
			<stop  offset="0.9043" style="stop-color:#F26220;stop-opacity:0.9043"/>
			<stop  offset="1" style="stop-color:#F25D19"/>
		</linearGradient>
		<path style="fill:url(#SVGID_00000077320567278132877600000011138092861739443857_);enable-background:new    ;" d="M4992.9,567
			H3616c89.6,295.2,364,510.1,688.5,510.1S4903.3,862.2,4992.9,567z"/>
		<g>
			<path class="st3" d="M3913.7,1438.5c1.6,5.9,15.1,20.3,16.3,22.1c25.3,33,37.9,68,37.9,105c0,73-45.6,153.1-115.1,177
				c-59.2,20.4-227.4,17.1-276,17.1c0,0-288.6,0-288.6,0c-72.2,0-123.6-1.6-154.3-4.8c-0.1,0-0.2,0-0.4,0
				c-16.4-1.8-28.6-16-29.6-32.5c-1.3-21.9-3.6-68.8-3.6-118.1c0-1.6,0-7.4-0.1-16.6c-71.2,115.1-194.4,182.7-424.6,182.7
				c-138,0-273.4-40.1-351.5-100.4c-86.3-66.6-135-155.4-129.3-301.5c1.9-48.4,12.4-97,37-145.8c-39.3,0.3-89.9,0.8-159.4,0.3
				c-82.8,1.7-149,0-191,1.5c-4.8,0.2-9.5,2.2-12.9,5.6c-3.5,3.5-5.5,8.4-5.5,13.4v455c0,1.1,0,2.2-0.1,3.3v25.1
				c0,19.2-15.6,34.7-34.7,34.7h-207.7c-19.2,0-34.7-15.6-34.7-34.7v-89.9V1080c0-20.7,16.4-37.6,37-38.2c0.4-0.1,0.9-0.1,1.3-0.1
				c0,0,238.9,0,238.9,0.1h479c10.9,0,16.4,10.7,16.4,31.9v14.3c28-15.9,59.4-28.3,94.2-37.2c57.4-14.9,107.4-27.3,277.5-22.3
				c178.5,5.2,298.8,59.1,366.6,177.1c-0.8-78.2-1.3-136.7-1.3-136.7c0-18.4,15.5-27.4,46.5-27.4h616c18.7,0,36.5,1.4,53.7,4.3
				l154.6,333.8C3952.1,1398.5,3933.8,1418.8,3913.7,1438.5z M2669.3,1204.9c-101.2,0-183.3,85-183.3,189.9s82.1,190,183.3,190
				c101.3,0,183.4-85.1,183.4-190S2770.6,1204.9,2669.3,1204.9z M3369.6,1566.1c0,7.7,6.1,14,13.7,14H3643c22.9,0,41.4-19,41.4-42.4
				v-1.5c0-23.5-18.5-42.4-41.4-42.4h-259.7c-7.6,0-13.7,6.3-13.7,14V1566.1z M3706.3,1236.3c-8.2-8.3-19.4-13.5-31.8-13.5H3386
				c-8.2,0-14.9,6.8-14.9,15.2v61.8c0,8.4,6.7,15.2,14.9,15.2h288.5c24.8,0,45-20.7,45-46.1
				C3719.5,1256.2,3714.4,1244.6,3706.3,1236.3z"/>
			<path class="st3" d="M1507.4,1430c-114.8,0.1-229.7,0.2-344.5,0.3c-12.8,0-27.7-1-35.1-11.5c-4.7-6.7-4.9-15.6-4.9-23.8
				c0.1-29.9,0.2-59.8,0.3-89.6c0-12.5,1.7-27.7,13-32.9c4.4-2,9.5-2,14.4-2c20.7,0.3,41.4,0.5,62.1,0.8c4,0.1,8.2,0.1,11.7-1.8
				c12.7-6.6,5-26.6-6.3-35.4c-20.9-16.3-48.1-21.9-74.3-25.5c-39.7-5.5-80.5-7.5-119.7,0.8c-39.2,8.3-77.1,27.6-102.2,58.9
				c-20.8,26-31.7,58.9-35.2,92c-4.1,38.8,1.7,78.9,19.4,113.7c25.9,51,77.6,88,134.2,96c56.6,8,116.6-13.1,155.6-54.8
				c6.7-7.2,13-15.1,21.7-19.6c9.3-4.9,20.3-5.4,30.8-5.7c89-2.8,178-3.3,267-1.5c5.2,0.1,10.7,0.3,15,3.1
				c9.8,6.2,8.7,20.6,5.5,31.8c-18.3,63.9-65.3,116.9-121.5,152.3c-56.2,35.4-121.1,54.7-186.4,67.1c-39.4,7.5-79.4,12.4-119.4,14.6
				c-141.1,7.5-302.3-18.2-415.6-108.2c-42-33.3-72.7-81-92.2-143.1c-10.6-32.9-17.2-67.1-19.5-101.5
				c-4.6-69.1,7.7-140.5,41.9-201.4c35.1-62.5,94.7-108.1,160.4-135c75.3-30.9,157.6-39,238.2-41.4c111.5-3.4,228.2,4.2,324.9,59.9
				c9.5,5.5,20.7,11.6,30.9,7.5c15.4-6.3,14.3-29,25.2-41.5c9.8-11.2,26.6-11.8,41.5-11.5c24.6,0.5,49.2,0.9,73.7,1.4
				c5.3,0.1,11,0.4,15,3.8c4.9,4.2,5.3,11.4,5.4,17.8c1.6,109.8,3.3,219.7,4.9,329.5c0.2,10.1-0.1,21.5-7.2,28.7
				C1529,1429.5,1517.6,1430,1507.4,1430z"/>
		</g>
		
			<linearGradient id="SVGID_00000115486686533105555630000018081869762625263804_" gradientUnits="userSpaceOnUse" x1="4230.5918" y1="1760.4623" x2="4230.5918" y2="1665.1533">
			<stop  offset="0" style="stop-color:#FBC7AC"/>
			<stop  offset="5.588615e-02" style="stop-color:#FABB9A"/>
			<stop  offset="0.1701" style="stop-color:#F8A57A"/>
			<stop  offset="0.2804" style="stop-color:#F79663"/>
			<stop  offset="0.3842" style="stop-color:#F68C55"/>
			<stop  offset="0.4746" style="stop-color:#F68950"/>
			<stop  offset="0.5761" style="stop-color:#F57A3D"/>
			<stop  offset="0.7164" style="stop-color:#F36A29"/>
			<stop  offset="0.8576" style="stop-color:#F2601D"/>
			<stop  offset="1" style="stop-color:#F25D19"/>
		</linearGradient>
		<path style="fill:url(#SVGID_00000115486686533105555630000018081869762625263804_);" d="M4649.7,1406.5v51.7
			c-0.1-0.1-0.1-0.1-0.1-0.1c-13.4-10.2-26.7-20.5-39.7-30.5l-134.4,281.7c-15.1,31.5-47,51.6-82,51.2l-194.7-1.7
			c-34.7-0.3-66.2-20.6-80.9-52.1l-306.6-661C3945.7,1151.4,4117,1219,4301,1219c125.2,0,243.5-29.2,348.6-81.1l0.1-0.1v206.8
			l-0.1,0.1l-23,48c7.6,4.6,15.3,9.2,23,13.8C4649.7,1406.4,4649.7,1406.5,4649.7,1406.5z M4341.4,1282.7h-110
			c-12.1,0-20.5,12.2-16.2,23.5l63.1,165.1c3.1,8.1,14.5,8.2,17.7,0.1l63.4-162.4C4364.3,1296.4,4355,1282.7,4341.4,1282.7z"/>
		<path class="st3" d="M5422.2,1191.4v-119c0-21.2-5.5-31.9-16.4-31.9h-479v-0.1h-126.4c-46.2,37.9-96.7,70.6-150.8,97.2l-0.1,0.1
			v587.8c0,19.2,15.5,34.7,34.7,34.7H4892c7.2,0,13.9-2.2,19.4-5.9c9.3-6.2,15.4-16.8,15.4-28.8v-25.1c0.1-1.1,0.1-2.2,0.1-3.3v-455
			c0-5,2-9.9,5.5-13.4c0.8-0.8,1.8-1.6,2.8-2.2c2.9-2,6.5-3.1,10.1-3.3c0.8,0,1.8,0,2.7-0.1c2.7-0.1,5.3-0.1,8.1-0.2
			c4.8-0.1,10-0.2,15.4-0.3h3c3.7-0.1,7.6-0.1,11.6-0.1h4.4c4-0.1,8.2-0.1,12.4-0.1c36.9,0,82,0.3,133.5-0.8
			c92.9,0.7,152.1-0.5,195.7-0.5c9.2,0,23,1.6,40.8,0c21.5,0,33.7-0.5,42.4-0.5C5422.7,1216.9,5422.2,1201.9,5422.2,1191.4z"/>
		<g id="g62_00000003810436501017703210000002058081366929676716_">
			
				<linearGradient id="SVGID_00000131343638455912745620000005372725021703756946_" gradientUnits="userSpaceOnUse" x1="4848.9126" y1="566.9516" x2="4848.9126" y2="722.6736">
				<stop  offset="0" style="stop-color:#FFFFFF"/>
				<stop  offset="0.4818" style="stop-color:#F8AC89"/>
				<stop  offset="0.838" style="stop-color:#F47339"/>
				<stop  offset="1" style="stop-color:#F25D19"/>
			</linearGradient>
			<path style="fill:url(#SVGID_00000131343638455912745620000005372725021703756946_);" d="M5207.2,1678c-0.1-1.6-0.2-3.1-0.3-4.8
				c-0.1-0.3-0.1-0.7-0.1-1.1c-0.2-1.8-0.4-3.7-0.7-5.6c-0.2-1.3-0.4-2.7-0.6-4c-0.2-1.2-0.4-2.5-0.7-3.7c-0.1-0.5-0.1-1-0.3-1.4
				c-0.3-1.4-0.5-2.7-0.8-4c-0.5-2.3-1-4.6-1.6-7c-1.4-5.9-3.2-12.1-5.2-18.5c-0.5-1.6-1-3.1-1.5-4.6c-1.2-3.7-2.5-7.5-3.9-11.3
				c-0.7-2-1.4-3.9-2.1-5.9c-2.5-6.6-5.1-13.4-8-20.5c-1.4-3.4-2.9-6.8-4.4-10.4c-3.1-7.3-6.5-14.8-10.1-22.5
				c-1.4-3.2-3-6.4-4.6-9.7c-4.8-9.9-9.9-20.2-15.3-30.8c-2.4-4.6-4.8-9.3-7.3-14c-5.7-10.8-11.6-21.8-17.8-33
				c-2.5-4.5-5-9-7.6-13.6c-10.6-18.7-21.8-38-33.7-57.9c-3.4-5.7-6.8-11.4-10.3-17.1c-0.5-0.9-1.1-1.8-1.6-2.7c-3-4.8-6-9.7-9-14.6
				c-2.1-3.5-4.2-6.9-6.3-10.4c-2.7-4.2-5.2-8.4-7.9-12.7c-4.4-7.1-8.9-14.2-13.5-21.4c-9.1-14.3-18.4-28.8-27.9-43.5
				c-6.5-9.9-12.9-19.8-19.6-29.8c-4.1-6.2-8.2-12.5-12.4-18.7c-1.1-1.6-2.1-3.2-3.2-4.8c-3.9-5.9-7.8-11.7-11.8-17.6
				c-8.2-12.2-16.4-24.4-24.8-36.7c-3.1-4.6-6.2-9.1-9.3-13.7c-15.6-22.8-31.5-45.9-47.6-68.9c-4.1-5.9-8.2-11.7-12.3-17.5
				c-5.4-7.7-10.8-15.3-16.1-23c-0.5-0.7-1-1.4-1.4-2c-3.5-4.8-6.9-9.7-10.4-14.6c-3.9-5.5-7.8-11-11.8-16.6
				c-7.9-11-15.8-22.1-23.7-33.1c-0.8-1.1-1.6-2.2-2.5-3.4c-6.5-9.1-13.1-18.3-19.7-27.3C4689,821.1,4601,704.4,4529.3,611.2
				c-11.8-15.4-23.2-30.2-34-44.2h-4.8c4.4,5.9,8.8,11.9,13.3,17.9c7.2,9.6,14.6,19.6,22.1,29.7c10.1,13.6,20.5,27.5,31.1,42
				c5.4,7.2,10.8,14.5,16.2,21.9c4.4,5.9,8.8,11.9,13.2,17.9c12.2,16.6,24.7,33.7,37.4,51.2c2.9,4,5.8,7.9,8.7,11.9
				c5.9,8,11.7,16.1,17.6,24.2c35.4,48.7,72.1,99.7,108.8,151.5c5.7,8,11.3,15.9,16.9,24c15.3,21.6,30.5,43.3,45.6,65.1
				c2.4,3.4,4.8,6.8,7.2,10.2c1.4,2,2.7,4,4.2,6.1c37.7,54.4,74.5,108.4,108.8,160.4c3.7,5.7,7.5,11.4,11.2,17
				c1.2,1.8,2.3,3.5,3.4,5.2c33.7,51.5,64.9,100.7,91.8,145.7c2.2,3.5,4.3,7.1,6.3,10.6c2.1,3.5,4.2,7,6.2,10.5
				c16.6,28.3,31.3,54.6,43.8,78.6c1.4,2.6,2.7,5.1,3.9,7.6c3.7,7.2,7.2,14.2,10.4,20.8c1.6,3.3,3.2,6.5,4.6,9.7
				c6.3,13.6,11.6,26.2,15.8,37.5c0.9,2.4,1.8,4.7,2.5,7c0.1,0.4,0.3,0.8,0.4,1.2c1,2.7,1.8,5.3,2.5,7.8c0.6,2,1.2,4,1.7,5.9
				c0.7,2.8,1.4,5.4,1.9,7.9c0.3,1.6,0.7,3.1,0.9,4.6c0.2,1.1,0.4,2.2,0.5,3.1c0.3,1.8,0.5,3.5,0.6,5c0.2,1.9,0.3,3.7,0.3,5.4
				c0,9-2.2,15.5-7,19.3c-9.2,7.3-24,9.5-43.3,7.6c-4-0.4-8.2-1-12.7-1.8c-16.2-2.9-34.9-8-55.5-15.2c-3-1-6.1-2-9.1-3.2
				c-28.9-10.4-61.3-24.3-95.7-40.7v90.5c2.7,1.6,5.5,3.2,8.2,4.8c16.3,9.4,32.2,18.3,47.8,26.4c7.8,4,15.5,7.9,23,11.6
				c2.5,1.2,5,2.4,7.6,3.6c0.1,0.1,0.2,0.1,0.3,0.2c4.7,2.2,9.4,4.4,14,6.5c5,2.2,9.9,4.4,14.8,6.4c4.2,1.7,8.3,3.4,12.3,5
				c0.5,0.2,1.1,0.4,1.6,0.6c2.3,0.9,4.6,1.8,6.9,2.6c2.2,0.8,4.5,1.6,6.7,2.5c5.7,2,11.2,3.8,16.6,5.5c2,0.6,4,1.2,6.1,1.8
				c1.8,0.5,3.7,1.1,5.5,1.5c1.4,0.4,2.7,0.7,4,1c2,0.5,4,1,6.1,1.4c2,0.5,4,0.9,5.9,1.3c7.8,1.6,15.3,2.6,22.3,3.1
				c1.3,0.1,2.6,0.2,3.9,0.3c21.9,1,39.9-3.1,53.1-13.6C5204.1,1712.6,5208.3,1698,5207.2,1678z"/>
		</g>
		<g id="g62_00000092417366110010073590000010182637763470917055_">
			
				<linearGradient id="SVGID_00000062883348000192355210000002476669315818820259_" gradientUnits="userSpaceOnUse" x1="4503.5659" y1="566.9398" x2="4503.5659" y2="569.8195">
				<stop  offset="0" style="stop-color:#FFFFFF"/>
				<stop  offset="0.4818" style="stop-color:#F8AC89"/>
				<stop  offset="0.838" style="stop-color:#F47339"/>
				<stop  offset="1" style="stop-color:#F25D19"/>
			</linearGradient>
			<path style="fill:url(#SVGID_00000062883348000192355210000002476669315818820259_);" d="M4511.9,588.5
				c-5.7-7.4-11.2-14.6-16.6-21.6h-0.1C4500.7,574,4506.3,581.2,4511.9,588.5z"/>
		</g>
	</g>
</g>
</svg>
